<!-- Generator: Adobe Illustrator 25.0.0, SVG Export Plug-In  -->
<svg version="1.1" xmlns="http://www.w3.org/2000/svg" xmlns:xlink="http://www.w3.org/1999/xlink" x="0px" y="0px" width="182.2px"
	 height="165.9px" viewBox="0 0 182.2 165.9" style="overflow:visible;enable-background:new 0 0 182.2 165.9;"
	 xml:space="preserve">
<style type="text/css">
	.st0{opacity:0.2;fill:#3D71F2;}
	.st1{fill:#3D71F2;}
	.st2{fill:#FFB0B3;}
	.st3{fill:#002D53;}
	.st4{fill:#FF7A72;}
	.st5{fill:#FFB3AE;}
	.st6{fill:#6190E5;}
	.st7{fill:#F1F3F6;}
	.st8{fill:#D18C7E;}
	.st9{fill:#BC7F72;}
	.st10{fill:#FFFFFF;}
	.st11{fill:#DFEAF7;}
</style>
<defs>
</defs>
<g>
	<path class="st0" d="M179,133.6c-2.7,5.6-7.3,10.6-13.2,14.8c-29.5,21.2-93,25.3-131.1,0c-6.3-4.1-11.8-9.1-16.5-14.9
		C5.8,118-1.5,94.3,0.3,71.9C1,62.7,2,51.1,10.5,41c17-20.3,48.4-15.7,50-15.5c22,3.6,22.4,16.7,54.2,36.8
		c35.4,22.4,55.5,19.3,64.2,39.3C182.9,110.9,183.8,123.6,179,133.6z"/>
	<path class="st1" d="M65.6,140.8l7.4-33.1c1.8-8.3,7.4-15.3,15.1-19l21.8-10.4l22.3,9.3c9,3.7,15.5,11.7,17.5,21.2l6.7,32
		L65.6,140.8z"/>
	<path class="st2" d="M96.1,130.2c0,0,5.8-7.6,8.6-7.1s8,9.6,8,9.6h23.1l0.6-5.9c0,0,14.8,2.7,20,14H98.7L96.1,130.2z"/>
	<path class="st3" d="M136.4,127.6c-0.4,0-0.7-0.3-0.7-0.6l-2-19.7c0-0.4,0.2-0.7,0.6-0.8c0,0,0,0,0.1,0c0.4,0,0.7,0.2,0.8,0.6
		l2,19.7c0,0.4-0.2,0.7-0.6,0.8L136.4,127.6z"/>
	<path class="st2" d="M99.5,75v15.3c0,0-1.1,9.5,5,8.6s12.6-17.7,12.6-17.7l-1-14.9L99.5,75z"/>
	<polygon class="st4" points="116.8,77.9 99.5,89 99.5,75 116,66.4 	"/>
	<ellipse transform="matrix(0.361 -0.9326 0.9326 0.361 10.7315 132.6154)" class="st5" cx="102.1" cy="58.5" rx="22.8" ry="15.9"/>
	<path class="st3" d="M119,55.7c-5.9-3.7-10.4-9.1-13.1-15.4c0,0-21.7,17-26.8,6.6s7.6-18.6,9-11.5c0,0,11.7-18.9,30.9-6.3
		S119,55.7,119,55.7z"/>
	<path class="st5" d="M122.1,60.8c-1.2,3.4-3.9,5.6-5.9,4.9s-2.6-4.1-1.4-7.5s3.9-5.6,5.9-4.9S123.4,57.3,122.1,60.8z"/>
	<rect x="26.2" y="112.7" class="st6" width="20.7" height="28.1"/>
	<path class="st6" d="M18.4,126.9c0,2.4,2,4.4,4.4,4.4c1.3,0,2.6-0.6,3.4-1.6v6c-1.1,0.4-2.2,0.6-3.4,0.6c-5.2,0-9.4-4.2-9.4-9.4
		c0-5.2,4.2-9.4,9.4-9.4c0,0,0,0,0,0c1.2,0,2.3,0.2,3.4,0.6v6c-1.6-1.9-4.4-2.2-6.3-0.6C19,124.4,18.4,125.6,18.4,126.9z"/>
	<path class="st7" d="M32,91.7c2.6-3.9,6.3-7,8.1-11.3c2.6-5.9,1.2-12.7,3.2-18.8c2.8-8.8,11.8-14,17.1-21.6
		c5.8-8.5,6.6-19.5,2.3-28.8c-2-4.2-5.1-7.9-9.3-9.8c-5.1-2.2-11-1.7-15.7,1.2c-4.7,3-8,7.6-9.5,12.9c-3.6,13,3.4,27,0.6,40.1
		c-1.7,7.8-6.7,14.6-8.3,22.5c-1.4,6.9-0.2,14,3.4,20.1c1,1.8,3.9,7.3,5.4,3.5c0.6-1.4,0.2-3.2,0.5-4.7C30.3,95,31,93.3,32,91.7z"/>
	<rect x="14.7" y="140.8" class="st8" width="161.9" height="7.6"/>
	<path class="st9" d="M165.7,148.4c-29.5,21.2-93,25.3-131.1,0H165.7z"/>
	<path class="st10" d="M101.8,137.2c0.5,1.5-0.4,3.1-1.9,3.5c-0.3,0.1-0.7,0.1-1,0.1h-48c-2.2-0.1-4.1-1.6-4.7-3.7l-8.7-35.7
		c-0.4-1.5,0.4-3.1,1.9-3.5c0.3-0.1,0.6-0.1,1-0.1h48c2.2,0.1,4.1,1.6,4.7,3.7L101.8,137.2z"/>
	<path class="st11" d="M74.4,119.8c0.6,2.3-0.9,4.6-3.2,5.2c-0.4,0.1-0.8,0.1-1.2,0.1c-3.1-0.1-5.6-2.3-6.3-5.3
		c-0.6-2.3,0.9-4.6,3.2-5.2c0.4-0.1,0.8-0.1,1.2-0.1C71.2,114.7,73.8,116.8,74.4,119.8z"/>
</g>
</svg>
