<!-- Generator: Adobe Illustrator 25.0.0, SVG Export Plug-In  -->
<svg version="1.1" xmlns="http://www.w3.org/2000/svg" xmlns:xlink="http://www.w3.org/1999/xlink" x="0px" y="0px" width="183.7px"
	 height="135.8px" viewBox="0 0 183.7 135.8" style="overflow:visible;enable-background:new 0 0 183.7 135.8;"
	 xml:space="preserve">
<style type="text/css">
	.st0{opacity:0.2;fill:#3D71F2;}
	.st1{opacity:0.21;fill:#002D53;}
	.st2{fill:#002D53;}
	.st3{fill:#FFFFFF;}
	.st4{fill:#004072;}
	.st5{fill:#FF828A;}
	.st6{fill:#BC7F72;}
	.st7{fill:#D18C7E;}
	.st8{fill:#FFB3AE;}
	.st9{fill:#3D71F2;}
	.st10{fill:#FF7A72;}
</style>
<defs>
</defs>
<g>
	<path class="st0" d="M171.1,100.9c-3.4,5.9-7.4,11.4-11.9,16.4l0,0l-0.1,0.2c-9.4,10.4-22.8,16.2-36.8,15.9l-53.8-0.7
		c-12-3.8-23.6-9-34.4-15.4l0,0c-9.2-5.6-18.4-12.7-24.9-21.4C3.6,88.5,0,79.9,0,70.2c0,0-2.8-34.5,55.7-36.5
		C82.5,30.6,77.9-1.1,135.3,0c1.9,0,3.8,0.2,5.7,0.4c3,0.4,6,1,8.9,2C164.8,7.2,175.2,19,180.2,34c1,2.9,1.7,5.9,2.3,8.9
		C185.7,60.7,182.3,81.6,171.1,100.9z"/>
	<path class="st1" d="M182.5,42.9h-41.5V0.5c3,0.4,6,1.1,8.9,2c14.9,4.8,25.3,16.6,30.4,31.6C181.1,37,181.9,39.9,182.5,42.9z"/>
	<path class="st1" d="M180.2,34.1h-30.4V2.4C164.7,7.2,175.1,19,180.2,34.1z"/>
	<path class="st2" d="M162.4,96h-24.8c0-5.5,0.1-10.9,0.1-16.4c-0.5-0.3-0.9-0.6-1.3-1c-4.9-4.8,0.3-16.7,0.9-18l3.3,4.8h6.7
		l2.7-4.8c0.8,1.7,1.5,3.4,2,5.1c1.4,4.5,2,9.3,1.8,14.1C155.9,79.8,157.3,80.5,162.4,96z"/>
	<path class="st3" d="M139.6,72.2c0,0.7-0.1,1.3-0.2,1.3s-0.2-0.6-0.2-1.3s0.1-1.3,0.2-1.3S139.6,71.4,139.6,72.2z"/>
	<path class="st3" d="M146.2,72.2c0,0.7-0.1,1.3-0.2,1.3s-0.2-0.6-0.2-1.3s0.1-1.3,0.2-1.3S146.2,71.4,146.2,72.2z"/>
	<polygon class="st2" points="70.5,96 55.3,96 61.3,71.9 76.5,71.9 	"/>
	<path class="st3" d="M106.9,82.4c0.2,1.4-0.8,2.7-2.2,2.9c-0.1,0-0.2,0-0.4,0H25.9c-1.6,0-3-1.3-3.2-2.9l-5.2-48.9
		c-0.2-1.4,0.8-2.7,2.2-2.9c0.1,0,0.3,0,0.4,0h78.4c1.6,0,3,1.3,3.2,2.9L106.9,82.4z"/>
	<path class="st2" d="M106.9,82.4c0.2,1.4-0.8,2.7-2.2,2.9c-0.1,0-0.2,0-0.4,0H25.9c-1.6,0-3-1.3-3.2-2.9l-5.2-48.9
		c-0.2-1.4,0.8-2.7,2.2-2.9c0.1,0,0.3,0,0.4,0h78.4c1.6,0,3,1.3,3.2,2.9L106.9,82.4z"/>
	<path class="st4" d="M29.1,81.7c-1.6,0-3-1.3-3.2-2.9l-4.4-41.6c-0.2-1.4,0.8-2.7,2.2-2.9c0.1,0,0.3,0,0.4,0h71.1
		c1.6,0,3,1.3,3.2,2.9l4.4,41.6c0.2,1.4-0.8,2.7-2.2,2.9c-0.1,0-0.3,0-0.4,0H29.1z"/>
	<polygon class="st5" points="46.8,47.3 29.9,47.3 29.5,44.6 46.4,44.6 	"/>
	<polygon class="st3" points="68.2,47.3 51.3,47.3 50.9,44.6 67.8,44.6 	"/>
	<polygon class="st3" points="48.1,54.9 31.2,54.9 30.7,52.3 47.7,52.3 	"/>
	<polygon class="st3" points="60.8,61.5 43.9,61.5 43.5,58.8 60.4,58.8 	"/>
	<polygon class="st3" points="70.9,68.9 53.9,68.9 53.5,66.3 70.4,66.3 	"/>
	<polygon class="st5" points="81.2,68.9 72.7,68.9 72.3,66.3 80.8,66.3 	"/>
	<polygon class="st5" points="79.5,61.5 62.6,61.5 62.2,58.8 79.1,58.8 	"/>
	<path class="st6" d="M159.2,117.3L159.2,117.3l-0.1,0.2c-9.4,10.4-22.8,16.2-36.8,15.9l-53.8-0.7c-12-3.8-23.6-9-34.4-15.4l0,0
		H159.2z"/>
	<path class="st7" d="M171.1,100.9c-3.4,5.9-7.5,11.4-12,16.5H34c-9.2-5.6-18.4-12.7-24.9-21.4h158.5L171.1,100.9z"/>
	<path class="st8" d="M118.4,61.5c-3.6,11-12.9,17.8-20.7,15.2s-11.1-13.6-7.5-24.6s12.9-17.8,20.7-15.2S122.1,50.5,118.4,61.5z"/>
	<rect x="103.4" y="64.1" class="st8" width="15.7" height="18.8"/>
	<path class="st2" d="M89.1,57c0,0-13-7.4-2.7-20.2c2.7-3.9,2.7,4,2.7,4s8.9-25.7,23.9-9.3c0,0,14.2,2.4,17.3,12
		c1,3.1,0.5,5.7-0.1,8.6c-0.2,1-3.8,18.2-16,20.4c-1.7,0.3-5.7,0.7-10.8-2.1L89.1,57z"/>
	<path class="st8" d="M101.9,63.5c0.3,3.4-0.6,6.3-2,6.5s-2.8-2.5-3.1-6c-0.3-3.5,0.6-6.3,2-6.5S101.6,60.1,101.9,63.5z"/>
	<path class="st9" d="M152.4,130.5c0,0-3.1,1.8-11.4,3.3c-9.5,1.7-25.9,3.1-52.4,1c-6.2-0.5-12.9-1.1-20.2-2
		c1.7-7.2,4.1-14.2,7.1-21c6.8-15.6,19.1-34.4,38.8-36.7c19.5-2.2,29.2,16.1,33.8,32.3C150.3,114.9,151.7,122.6,152.4,130.5z"/>
	<path class="st8" d="M152.4,130.5c0,0-3.1,1.8-11.4,3.3l-2.5-22.8l9.7-3.5C150.3,114.9,151.7,122.6,152.4,130.5z"/>
	<path class="st8" d="M91.7,117.3l-1,5.9c-1.2,6.6-7.3,11.2-13.9,10.5c-2.7-0.3-5.5-0.6-8.3-0.9c-9.4-1-27.4-27.4-27.4-27.4l-4.9,1
		c-1.6,5.7-2.8,7.1-3.7,7.1c-1.8-0.1-2.8-7-2.2-11.1c0-1.8,1.4-3.2,3.2-3.2c0.1,0,0.2,0,0.3,0l1.8,0.2c-0.6-0.1-1.2-0.2-1.8-0.2
		h-0.4c0.4-4.6,3.4-8.6,7.7-10.2c2.7-0.8,5.7-0.7,8.2,0.5c0,0,1.2-0.8,4.1-0.5s4.4,7.3,4.4,7.3l17.8,15.6
		C80.2,115.3,85.9,117.2,91.7,117.3z"/>
	<path class="st10" d="M35.4,100.1h-0.1c-0.5-0.1-1.1-0.1-1.6-0.1c-0.5,0-0.8-0.4-0.8-0.8c0-0.5,0.4-0.8,0.8-0.8
		c0.6,0,1.3,0.1,1.9,0.2c0.5,0.1,0.8,0.5,0.7,1c0,0,0,0,0,0C36.2,99.8,35.8,100.1,35.4,100.1z"/>
	<path class="st10" d="M71.1,120.8c-0.1,0-0.3,0-0.4-0.1c-0.4-0.2-0.6-0.7-0.3-1.1c0,0,0,0,0,0l4.4-8.2c0.2-0.4,0.7-0.6,1.1-0.4
		s0.6,0.7,0.4,1.1c0,0,0,0.1,0,0.1l-4.4,8.2C71.7,120.6,71.4,120.8,71.1,120.8z"/>
	<path class="st2" d="M138.5,111.5c-0.3,0-0.5-0.2-0.6-0.5L134.7,96c-0.1-0.3,0.2-0.7,0.5-0.7c0.3-0.1,0.7,0.1,0.7,0.5c0,0,0,0,0,0
		l3.2,15.1c0.1,0.3-0.1,0.7-0.5,0.7c0,0,0,0,0,0L138.5,111.5z"/>
	<path class="st2" d="M91.7,118c-0.1,0-0.2,0-0.3-0.1c-0.3-0.2-0.4-0.5-0.3-0.9l5.8-10.7c0.2-0.3,0.6-0.4,0.9-0.3
		c0.3,0.2,0.4,0.5,0.3,0.9l-5.8,10.7C92.1,117.9,91.9,118,91.7,118z"/>
</g>
</svg>
