<!-- Generator: Adobe Illustrator 25.0.0, SVG Export Plug-In  -->
<svg version="1.1" xmlns="http://www.w3.org/2000/svg" xmlns:xlink="http://www.w3.org/1999/xlink" x="0px" y="0px" width="108.3px"
	 height="186.5px" viewBox="0 0 108.3 186.5" style="overflow:visible;enable-background:new 0 0 108.3 186.5;"
	 xml:space="preserve">
<style type="text/css">
	.st0{fill:#2A7BF2;}
</style>
<defs>
</defs>
<g>
	<path class="st0" d="M25.9,108.5V78c0-0.2,0-0.4,0-0.6c0-0.3-0.1-0.6-0.4-0.8c-1.1-0.9-2.2-1.8-3.2-2.8c-0.6-0.6-1.3-1.2-1.9-1.7
		c-0.7-0.7-1.5-1.3-2.3-1.9c-1.4-1.2-2.7-2.4-4.1-3.6c-1-0.9-2.1-1.8-3.1-2.7c-0.7-0.6-1.3-1.2-2-1.7c-0.3-0.3-0.5-0.6-0.5-1
		c0-0.2,0-0.4,0-0.6l0-25.6c0-0.8-0.1-1-0.9-1.2c-0.6-0.2-1.3-0.4-1.9-0.7c-0.7-0.3-1.3-0.8-1.9-1.2c-0.5-0.4-1-0.9-1.4-1.4
		c-0.5-0.7-0.9-1.4-1.3-2.1c-0.1-0.3-0.3-0.6-0.4-0.9c-0.1-0.2-0.1-0.4-0.2-0.6c-0.1-0.5-0.1-1.1-0.4-1.6C0,24.9,0,24.8,0,24.6
		c0-0.6,0-1.2,0-1.7c0-0.1,0-0.3,0.1-0.4c0.3-0.4,0.4-0.9,0.4-1.4c0-0.3,0.1-0.5,0.2-0.8c0.1-0.1,0.1-0.2,0.2-0.3
		c0.6-1.9,1.8-3.4,3.5-4.6c0.4-0.3,0.9-0.6,1.3-0.8c0.2-0.1,0.4-0.2,0.6-0.2c0.1,0,0.2,0,0.3-0.1C7.2,14,7.8,14,8.3,13.8
		c0.9-0.2,1.9-0.3,2.8-0.2c1,0.2,2.1,0.2,3.1,0.7c0.7,0.3,1.4,0.7,2.1,1.1c0.6,0.4,1.1,0.8,1.6,1.4c0.5,0.6,1,1.2,1.4,1.8
		c0.3,0.5,0.7,1,0.8,1.6c0,0.2,0.1,0.4,0.2,0.5c0.2,0.5,0.3,1,0.3,1.6c0,0.4,0,0.9,0.1,1.3c0.1,0.5-0.1,1-0.1,1.5
		c0,1.5-0.6,2.8-1.4,4.1c-0.3,0.5-0.7,1-1.1,1.5c-0.9,1-1.9,1.8-3.1,2.3c-0.5,0.2-1,0.4-1.5,0.6c-0.2,0.1-0.4,0.2-0.7,0.3
		c-0.3,0.1-0.4,0.3-0.4,0.6c0,0.2,0,0.3,0,0.5c0,7.4,0,14.9,0,22.3c0,0.6,0,1.2,0,1.8c0,0.4,0.1,0.7,0.5,1c0.6,0.5,1.2,1.1,1.9,1.6
		c1.4,1.2,2.7,2.4,4.1,3.6c1.1,1,2.2,1.9,3.3,2.8c0.6,0.6,1.3,1.1,1.9,1.7c0.7,0.6,1.3,1.1,2,1.7c0.9,0.8,1.8,1.5,2.6,2.3
		c0,0,0.1,0.1,0.1,0.1c0.6,0.4,0.9,0.9,1,1.6c0.1,0.5,0.1,1.1,0.2,1.6C30.1,85,30,93,30,100.9c0,10.5,0,20.9,0,31.4
		c0,0.9-0.3,1.6-0.8,2.3c-0.5,0.7-0.9,1.4-1.3,2.2c-0.5,0.9-0.9,1.8-1.3,2.7c-0.1,0.2-0.1,0.3-0.2,0.5c0,0.1-0.1,0.3-0.2,0.3
		c-0.2,0.1-0.4,0.1-0.4-0.1c0-0.1,0-0.3,0-0.4c0.1-5.4,0-10.8,0-16.1C25.9,118.5,25.9,113.5,25.9,108.5 M16.4,23.7
		c0-0.3,0.1-0.8-0.1-1.2c-0.3-0.7-0.6-1.5-1-2.1c-0.2-0.3-0.5-0.7-0.8-1c-1.1-1.1-2.5-1.5-4.1-1.7c-0.1,0-0.1,0-0.2,0
		c-0.5,0.1-1,0.2-1.5,0.2c-0.2,0-0.3,0.1-0.4,0.1c-0.5,0.3-1,0.5-1.5,0.8c-1.5,1.1-2.4,2.6-2.5,4.5c-0.1,1.1,0.2,2.2,0.7,3.1
		c0.3,0.6,0.8,1.2,1.3,1.7c0.8,0.6,1.6,1.1,2.6,1.4c0.4,0.1,0.8,0.3,1.2,0.3c1.2,0,2.2-0.3,3.2-0.9c1.3-0.8,2.3-1.9,2.8-3.3
		c0-0.1,0.1-0.2,0.1-0.3c0.2-0.2,0.2-0.5,0.2-0.8V23.7z"/>
	<path class="st0" d="M59.2,186.5H55c-0.2,0-0.5,0-0.7-0.1c-0.2-0.1-0.5-0.2-0.7-0.2c-0.6,0-1.3-0.1-1.9-0.4
		c-0.1-0.1-0.3-0.1-0.4-0.1c-1.1-0.1-2.1-0.5-3.1-0.9c-0.6-0.2-1.1-0.4-1.7-0.7c-1.1-0.5-2.2-1-3.2-1.6c-1.7-1-3.3-2.2-4.8-3.5
		c-0.5-0.5-1-1-1.5-1.5c-0.6-0.6-1.1-1.2-1.6-1.8c-0.7-0.9-1.4-1.8-2-2.7c-0.5-0.8-1-1.6-1.4-2.4c-0.4-0.9-0.9-1.8-1.3-2.7
		c-0.2-0.6-0.5-1.2-0.7-1.8c-0.3-1-0.7-1.9-0.8-2.9c0-0.2-0.1-0.4-0.2-0.6c-0.1-0.4-0.2-0.8-0.3-1.2c0-0.6-0.1-1.2-0.3-1.9
		c-0.1-0.6-0.2-1.2-0.2-1.8c0-1.7,0-3.3,0-5c0-0.7,0.1-1.4,0.2-2.1c0.1-0.6,0.2-1.2,0.3-1.8c0-0.1,0-0.2,0-0.3
		c0.3-0.9,0.4-1.8,0.7-2.7c0.1-0.4,0.3-0.9,0.4-1.3c0-0.2,0.1-0.4,0.2-0.6c0.1-0.1,0.1-0.2,0.1-0.3c0.3-1,0.7-1.9,1.1-2.8
		c0.2-0.4,0.4-0.8,0.7-1.2c0.4-0.7,0.8-1.5,1.2-2.2c0.6-1,1.2-1.9,1.9-2.8c0.8-1,1.6-1.9,2.5-2.8c1.1-1.1,2.3-2.2,3.5-3.1
		c1-0.7,2-1.4,3.1-1.9c0.4-0.2,0.8-0.5,1.2-0.6c0.6-0.3,1.2-0.6,1.8-0.8c0.5-0.2,1.1-0.4,1.6-0.6c0.8-0.3,1.6-0.3,2.3-0.7
		c0,0,0.1,0,0.1,0c1.2-0.2,2.4-0.5,3.6-0.6c2.1-0.2,4.2-0.2,6.3-0.2c0.9,0,1.8,0.1,2.6,0.2c0.3,0,0.5,0.1,0.8,0.1c0.1,0,0.2,0,0.3,0
		c1.2,0.2,2.4,0.4,3.5,0.7c0.8,0.2,1.5,0.4,2.3,0.7c0.7,0.2,1.3,0.5,1.9,0.8c0.4,0.2,0.8,0.4,1.3,0.6c1,0.5,2,1.1,3,1.7
		c0.6,0.4,1.2,0.8,1.8,1.3c1.2,0.9,2.3,1.8,3.4,2.7c0.2,0.2,0.5,0.4,0.7,0.7c0.2,0.3,0.2,0.5,0,0.8c-0.9,0.9-1.7,1.9-2.6,2.8
		c-0.4,0.4-0.6,0.4-1,0c-0.8-0.8-1.7-1.5-2.6-2.3c-0.7-0.6-1.6-1.1-2.3-1.8c-0.2-0.1-0.4-0.2-0.5-0.3c-0.9-0.5-1.8-1-2.7-1.5
		c-1.2-0.6-2.5-1.1-3.8-1.5c-0.8-0.3-1.6-0.4-2.4-0.7c-0.6-0.2-1.3-0.2-2-0.3c-1.8-0.3-3.7-0.3-5.5-0.2c-0.7,0-1.5,0.1-2.2,0.2
		c-0.4,0.1-0.8,0.2-1.2,0.2c0,0-0.1,0-0.1,0c-0.7,0.3-1.5,0.4-2.3,0.6c-0.6,0.2-1.2,0.4-1.8,0.6c-1,0.4-1.9,0.8-2.8,1.3
		c-0.7,0.4-1.4,0.8-2.1,1.3c-1.1,0.8-2.1,1.5-3,2.5c-0.6,0.6-1.2,1.1-1.7,1.8c-0.8,1-1.5,2-2.2,3c-0.7,1.1-1.3,2.3-1.9,3.4
		c-0.3,0.5-0.4,1-0.6,1.6c-0.2,0.5-0.4,1-0.6,1.5c-0.5,1.2-0.6,2.4-0.9,3.6c-0.1,0.4-0.1,0.7-0.1,1.1c-0.1,0.7-0.3,1.3-0.3,2
		c0,0.3-0.1,0.6-0.1,0.9c0,0.3,0,0.5,0,0.8c0,1.6,0.1,3.2,0.3,4.8c0.2,1.3,0.5,2.6,0.8,3.9c0,0.2,0.1,0.4,0.2,0.6
		c0,0.1,0.1,0.2,0.1,0.3c0.1,0.6,0.4,1.1,0.6,1.7c0.2,0.6,0.4,1.1,0.7,1.6c0.3,0.8,0.8,1.5,1.2,2.3c0.5,1,1.1,1.9,1.8,2.8
		c0.5,0.6,0.9,1.2,1.4,1.8c0.4,0.5,0.9,0.9,1.3,1.3c1,1,2,1.8,3.2,2.6c0.6,0.4,1.2,0.8,1.8,1.2c0.8,0.4,1.5,0.8,2.4,1.2
		c0.6,0.3,1.3,0.5,1.9,0.8c0.6,0.3,1.4,0.3,2,0.6c0.2,0.1,0.4,0.1,0.6,0.1c0.2,0,0.3,0,0.5,0.1c1.1,0.4,2.3,0.4,3.5,0.5
		c1.1,0.1,2.1,0.1,3.2,0c0.9-0.1,1.8,0,2.7-0.2c0.7-0.1,1.4-0.3,2-0.4c0.7-0.1,1.4-0.4,2-0.6c1.5-0.5,2.9-1.2,4.3-1.9
		c0.8-0.5,1.6-1,2.4-1.5c0.9-0.6,1.8-1.3,2.7-2c0.8-0.7,1.7-1.4,2.4-2.2c0.7-0.7,0.7-0.7,1.4,0c0.7,0.7,1.4,1.3,2.1,2
		c0.6,0.6,0.6,0.8-0.1,1.2c-0.5,0.4-0.9,0.8-1.4,1.2c-0.5,0.5-1.1,0.9-1.6,1.4c-0.7,0.6-1.4,1.2-2.2,1.7c-1.3,0.9-2.5,1.7-3.9,2.4
		c-0.7,0.4-1.5,0.7-2.3,1c-1.2,0.5-2.4,0.9-3.5,1.2c-0.3,0.1-0.6,0.1-0.8,0.2c-0.3,0-0.6,0.1-0.9,0.2c-0.5,0.2-1,0.2-1.4,0.3
		c-0.3,0-0.7,0.1-1,0.2c-0.2,0.1-0.4,0.1-0.6,0.1C62,186.5,60.6,186.5,59.2,186.5"/>
	<path class="st0" d="M78.8,99.2c0-7.7,0-15.5,0-23.2c0-0.6,0.1-1.1,0.1-1.7c0-0.1,0.1-0.2,0.1-0.3c0.3-0.3,0.6-0.7,0.9-1
		c1.1-1,2.2-1.9,3.3-2.8c1.1-0.9,2.2-1.9,3.3-2.9c1.8-1.5,3.5-3,5.3-4.6c1.1-0.9,2.1-1.9,3.2-2.8c0.4-0.3,0.5-0.7,0.5-1.2
		c0-0.7-0.1-1.5-0.1-2.2c0-6.5,0-13.1,0-19.6c0-0.6,0.1-1.2,0.1-1.8c0-0.2,0-0.3,0-0.5c0-0.5-0.3-0.9-0.8-1
		c-1.5-0.4-2.9-1.2-4.1-2.3c-1.2-1.1-2.1-2.5-2.7-4.1c-0.6-1.8-0.8-3.6-0.4-5.5c0.4-2.1,1.3-3.9,2.8-5.4c0.8-0.8,1.7-1.5,2.7-1.9
		c1.1-0.5,2.3-0.9,3.6-1.1c1.6-0.2,3.1,0,4.6,0.5c1.7,0.6,3.2,1.6,4.4,3c0.8,1,1.5,2.1,1.9,3.3c0.4,1.3,0.7,2.5,0.6,3.9
		c0,1-0.2,2.1-0.6,3c-0.4,1.2-1,2.3-1.8,3.3c-0.4,0.5-0.9,1-1.4,1.4c-1,0.9-2.2,1.5-3.5,1.9c-0.9,0.3-1,0.4-1,1.3
		c0.1,1.9,0.1,3.7,0.1,5.6c0,5.7,0,11.5,0,17.2c0,1.1-0.1,2.1-0.1,3.2c0,0.6-0.4,1-0.8,1.3c-0.7,0.6-1.4,1.2-2.1,1.8
		c-0.7,0.6-1.4,1.3-2.2,1.9c-0.8,0.7-1.6,1.4-2.4,2.1c-0.7,0.6-1.5,1.3-2.2,2c-1.3,1.1-2.6,2.2-3.8,3.3c-0.7,0.6-1.4,1.3-2.1,1.9
		c-0.3,0.2-0.5,0.4-0.8,0.6c-0.3,0.2-0.5,0.5-0.4,0.9c0,0.4,0,0.7,0,1.1c0,15.5,0,31,0,46.6c0,0.4,0,0.7,0,1.1c0,0.2,0,0.4-0.2,0.5
		c-0.2,0.1-0.4,0-0.6-0.1c-0.4-0.4-0.8-0.7-1.3-1.1c-0.6-0.4-1.2-0.9-1.8-1.3c-0.4-0.3-0.6-0.6-0.5-1.1c0-5.9,0-11.7,0-17.6
		L78.8,99.2L78.8,99.2z M92,23.8c-0.2,3,2.6,6.1,6.1,6c3.1-0.1,5.7-2.4,5.9-6.1c-0.2-3.1-2.7-5.8-6-5.9C94.8,17.8,91.7,20.8,92,23.8
		"/>
	<path class="st0" d="M47.7,88.9v29.6c0,0.3,0,0.5,0,0.8c0,0.4-0.2,0.6-0.5,0.7c-0.9,0.3-1.7,0.7-2.6,1c-0.2,0.1-0.4,0.2-0.5,0.3
		c-0.4,0.3-0.7,0.1-0.7-0.3c0-0.3,0-0.6,0-0.9c0-19.6,0-39.1,0-58.7c0-0.4,0-0.7,0.1-1.1c0.1-0.5-0.1-0.9-0.4-1.3
		c-0.7-0.8-1.5-1.6-2.2-2.5c-1.4-1.5-2.8-3.1-4.1-4.6c-0.6-0.7-1.2-1.4-1.8-2.1c-0.5-0.6-0.8-1.2-0.8-2c0-1.8,0-3.5,0-5.3
		c0-6.8,0-13.6,0-20.3c0-0.4,0-0.8,0.1-1.2c0-0.2,0-0.5-0.1-0.7c-0.1-0.3-0.3-0.4-0.6-0.5c-1.2-0.4-2.3-0.8-3.2-1.5
		c-1.2-0.8-2.1-1.9-2.8-3.2c-1.2-2-1.4-4.2-1.2-6.5c0.1-1,0.3-1.9,0.7-2.7c0.7-1.4,1.5-2.6,2.8-3.6c0.6-0.5,1.3-1,2.1-1.3
		c0.8-0.3,1.6-0.7,2.5-0.8c0.1,0,0.2,0,0.2,0C35.2-0.1,35.9,0,36.5,0c0.5,0,0.9-0.1,1.3,0.2c0,0,0.1,0,0.1,0c0.7,0,1.4,0.3,2.1,0.5
		c0.8,0.3,1.6,0.7,2.3,1.2c0.7,0.5,1.3,1.1,1.9,1.8c0.6,0.7,1,1.4,1.3,2.2c0.3,0.8,0.6,1.7,0.7,2.6c0.2,1.4,0.1,2.7-0.2,4
		c-0.2,0.7-0.4,1.3-0.7,2c-0.3,0.6-0.7,1.2-1.1,1.7c-0.7,0.9-1.5,1.7-2.5,2.3c-0.4,0.3-0.8,0.5-1.2,0.6c-0.5,0.2-1,0.5-1.6,0.6
		c-0.4,0.1-0.6,0.3-0.6,0.8c0,0.4,0,0.7,0,1.1c0,8.2,0,16.5,0,24.7c0,0.2,0,0.4,0,0.6c0,0.3,0.1,0.5,0.3,0.7c1.5,1.7,2.9,3.4,4.4,5
		c0.7,0.8,1.4,1.5,2.1,2.3c0.7,0.8,1.4,1.6,2.1,2.4c0.2,0.3,0.3,0.6,0.4,0.9c0,0.4,0,0.9,0,1.3V88.9z M36.3,16.4
		c3.3-0.1,6.2-2.8,6.3-6.2c0.1-3.5-3.1-6.3-6.2-6.3c-3-0.1-6.5,2.7-6.3,6.4C30.2,13.5,32.8,16.4,36.3,16.4"/>
	<path class="st0" d="M61.4,88.8c0-9.4,0-18.9,0-28.3c0-0.5,0-0.9-0.1-1.4c-0.1-0.6,0-1.1,0.4-1.5c0.4-0.6,0.9-1.2,1.4-1.7
		c1.2-1.4,2.5-2.7,3.7-4c1-1.1,1.9-2.2,2.9-3.3c0.2-0.2,0.4-0.5,0.6-0.7c0.2-0.2,0.2-0.4,0.3-0.7c0-0.2,0-0.4,0-0.6
		c0-8.1,0-16.2,0-24.4c0-0.4,0.1-0.8,0-1.2c-0.1-0.3-0.2-0.5-0.4-0.6c-0.3-0.2-0.6-0.3-1-0.4c-0.3,0-0.6-0.1-0.9-0.3
		c-0.4-0.2-0.9-0.4-1.3-0.6c-1.2-0.7-2.2-1.6-3-2.7c-0.6-0.7-1-1.6-1.4-2.5c-0.1-0.3-0.2-0.6-0.2-0.9c0-0.1,0-0.2-0.1-0.3
		c-0.4-1-0.3-2.1-0.3-3.1c0-0.7,0.2-1.4,0.3-2.1c0.2-0.9,0.6-1.7,1-2.5C64,4,64.7,3.2,65.5,2.5c0.6-0.6,1.4-1.1,2.2-1.4
		c0.6-0.3,1.2-0.7,1.9-0.7c0.1,0,0.2,0,0.3-0.1C70.3,0,70.7,0,71.1,0C72,0,73,0,73.9,0c0.3,0,0.5,0,0.7,0.2c0,0,0.1,0.1,0.2,0.1
		c0.6,0.1,1.1,0.3,1.6,0.5c1,0.4,2,1,2.7,1.7c0.6,0.6,1.2,1.1,1.7,1.9c1.1,1.7,1.7,3.5,1.8,5.6c0,1.4-0.2,2.6-0.7,3.9
		c-0.4,1.1-1,2-1.7,2.9c-0.9,1-1.9,1.9-3.1,2.4c-0.5,0.3-1.1,0.5-1.6,0.7c-0.4,0.1-0.7,0.5-0.7,0.9c0,0.5,0,1,0,1.5
		c0,8.5,0,17,0,25.5c0,0.2,0,0.5,0,0.7c0,0.7-0.5,1.3-1,1.7c-1.1,1.2-2.1,2.4-3.2,3.6c-0.6,0.6-1.1,1.3-1.7,1.9c-1,1.1-2,2.2-3,3.3
		c-0.3,0.4-0.5,0.8-0.4,1.3c0.1,0.3,0,0.7,0,1c0,18.5,0,37,0,55.5c0,0.4,0,0.8,0,1.2c0,0.6-0.2,0.8-0.7,0.7
		c-0.8-0.1-1.6-0.1-2.4-0.1c-0.1,0-0.2,0-0.4,0c-0.5-0.1-0.6-0.2-0.6-0.7c0-0.4,0-0.9,0-1.3C61.4,107.3,61.4,98.1,61.4,88.8
		 M72.1,16.3c2,0,3.6-0.7,4.8-2c1.1-1.2,1.7-2.7,1.6-4.4C78.2,7,75.8,4,72.1,4.1c-3,0.1-6,2.7-5.9,6.2C66.2,13.5,69,16.3,72.1,16.3"
		/>
	<path class="st0" d="M59.3,134.1c0.5,0,0.9,0,1.4,0c0.8,0,1.6,0.1,2.4,0.3c0.2,0,0.3,0,0.5,0.1c0.3,0,0.6,0,0.9,0.1
		c1,0.4,2,0.5,3,0.9c1.2,0.5,2.3,1.1,3.4,1.7c0.5,0.3,0.9,0.6,1.3,0.9c0.9,0.7,1.8,1.4,2.6,2.2c0.3,0.3,0.4,0.6,0.4,1.1
		c0,0.2-0.1,0.4-0.3,0.6c-0.5,0.8-1.2,1.4-1.9,2c-0.4,0.4-1.1,0.3-1.5-0.1c-1.1-1-2.3-2-3.6-2.8c-0.7-0.5-1.5-0.9-2.3-1.2
		c-0.6-0.3-1.3-0.6-2-0.7c-0.2,0-0.4-0.1-0.5-0.2c-0.5-0.2-0.9-0.3-1.4-0.3c-0.6,0-1.2-0.1-1.8-0.2c-0.6-0.1-1.2,0-1.8,0.1
		c-0.3,0-0.6,0.1-1,0.1c-0.5,0-0.9,0.1-1.4,0.3c-0.1,0.1-0.2,0.1-0.3,0.1c-0.7,0.1-1.3,0.4-1.9,0.6c-0.4,0.1-0.7,0.3-1.1,0.5
		c-1.2,0.7-2.5,1.5-3.5,2.5c-0.9,0.9-1.6,1.8-2.3,2.9c-0.5,0.8-1,1.7-1.4,2.6c-0.4,0.9-0.7,1.8-1,2.7c-0.1,0.1,0,0.3-0.1,0.5
		c-0.1,0.5-0.1,1-0.3,1.5c-0.1,0.3-0.1,0.7-0.1,1.1c0,0.9,0,1.8,0,2.7c0,0.2,0,0.4,0.1,0.6c0.1,0.4,0.2,0.7,0.2,1.1
		c0.1,1,0.4,1.9,0.8,2.8c0.2,0.5,0.3,0.9,0.5,1.4c0.5,1.1,1.1,2.1,1.8,3.1c0.6,0.8,1.3,1.5,2,2.2c0.8,0.7,1.7,1.3,2.6,1.9
		c0.8,0.5,1.7,0.9,2.6,1.2c1.3,0.4,2.6,0.6,3.9,0.9c1,0.2,2,0.1,3-0.2c0.6-0.2,1.3-0.2,2-0.4c1.1-0.3,2.2-0.7,3.2-1.3
		c1.5-0.8,2.8-1.8,4.1-2.8c0.4-0.3,0.7-0.7,1.1-1c0.5-0.5,1.2-0.4,1.7,0c0.5,0.4,0.9,0.9,1.4,1.3c0,0,0.1,0.1,0.1,0.1
		c0.7,0.7,0.7,1.2,0,1.9c-1.1,1.1-2.3,2.1-3.5,3c-0.9,0.7-2,1.2-3,1.8c-0.6,0.3-1.2,0.6-1.9,0.7c0,0-0.1,0-0.1,0
		c-1.2,0.5-2.5,0.7-3.8,0.9c-0.1,0-0.3,0-0.4,0c-1.7,0-3.4,0.1-5.1,0.1c-1.1,0-2.1-0.2-3.1-0.5c-1.3-0.3-2.5-0.8-3.7-1.3
		c-0.6-0.3-1.1-0.6-1.7-0.9c-1-0.6-1.9-1.2-2.8-2c-0.9-0.9-1.8-1.7-2.6-2.7c-0.3-0.4-0.7-0.9-1-1.4c-0.4-0.8-1-1.5-1.3-2.4
		c-0.2-0.5-0.4-1-0.6-1.5c-0.1-0.2-0.2-0.4-0.2-0.6c-0.2-0.8-0.6-1.6-0.6-2.5c0,0,0-0.1,0-0.1c-0.4-0.9-0.3-1.8-0.4-2.7
		c-0.1-0.9-0.1-1.9-0.1-2.8c0-1.1,0.1-2.1,0.2-3.2c0.1-0.6,0.2-1.3,0.4-1.9c0.3-1.1,0.6-2.1,1.1-3.1c0.4-0.7,0.7-1.5,1.2-2.2
		c0.2-0.3,0.4-0.7,0.6-1.1c0.9-1.4,2-2.6,3.2-3.7c1-0.9,2-1.7,3.2-2.4c0.8-0.5,1.7-0.9,2.6-1.3c0.6-0.2,1.2-0.4,1.8-0.6
		c0.6-0.2,1.3-0.4,1.9-0.4c0.4,0,0.8-0.1,1.1-0.2c0.3-0.1,0.6-0.1,1-0.1H59.3z"/>
</g>
</svg>
