<!-- Generator: Adobe Illustrator 25.0.0, SVG Export Plug-In  -->
<svg version="1.1" xmlns="http://www.w3.org/2000/svg" xmlns:xlink="http://www.w3.org/1999/xlink" x="0px" y="0px" width="199.6px"
	 height="134.5px" viewBox="0 0 199.6 134.5" style="overflow:visible;enable-background:new 0 0 199.6 134.5;"
	 xml:space="preserve">
<style type="text/css">
	.st0{opacity:0.2;fill:#3D71F2;}
	.st1{fill:#3D71F2;}
	.st2{fill:#002D53;}
	.st3{fill:#40C1B0;}
	.st4{fill:#FF828A;}
	.st5{fill:#004070;}
	.st6{fill:#FFB042;}
	.st7{fill:#FFFFFF;}
	.st8{fill:#FFB3AE;}
	.st9{fill:#FF7A72;}
</style>
<defs>
</defs>
<g>
	<path class="st0" d="M190.7,95.8c-7,12.4-17.8,21.1-30.7,27l-0.2,0.1c-17.2,7.9-38,11-58,11.5c-17.4,0.4-34.8-0.7-52-3.1
		c-14.6-2-24.2-4.3-24.6-4.4c-1.1-0.3-2.1-0.7-2.1-0.7c-0.8-0.3-1.5-0.6-2.3-1h-0.1l-0.2-0.1c-5.8-2.7-10.7-6.8-14.4-12.1
		c-4.4-6.3-6.5-14-6.1-21.7c0.4-9.1,2.8-18.1,7-26.2C17,46.7,39.5,29,62.5,27.4c8.7-0.6,20.9,0.5,33.3-7.2c2.8-1.8,3.8-2.4,6.4-4.1
		C106,13.7,125.4,1.4,148.5,4c5.7,0.6,24.6,3.6,38.1,19.5C205.1,45.1,201.3,76.9,190.7,95.8z"/>
	<path class="st1" d="M165.4,111.9c-2,4.5-3.9,8.2-5.4,10.9l-0.2,0.1c-17.2,7.9-38,11-58,11.5c-6.6,0-12.6-0.2-18.1-0.7
		c-8.9-5.5-12.9-13.9-10.9-19.7c0.6-1.6,1.6-3,2.9-4c13.3-10.1,34.7-10.4,39.1-21.9c3-7.7,10.4-29.2,15-42.6
		c1.4-4.2,12-15.2,24.5-14.6c10.4,0.5,17.5,9.2,18.2,10.1C188.3,60.8,171.2,98.8,165.4,111.9z"/>
	<path class="st2" d="M145.9,118L145.9,118l-19-2.5c-0.3,0-0.6-0.4-0.6-0.7c0-0.3,0.4-0.6,0.7-0.5l18.9,2.5c0.3,0,0.6,0.4,0.6,0.7
		c0,0,0,0,0,0C146.5,117.8,146.2,118,145.9,118z"/>
	<path class="st3" d="M44.8,78.2c-0.7-16.6-0.4-37.6,5.1-38.8c0.5-0.1,1-0.1,1.5,0.2C55.8,41.9,50.7,60.6,44.8,78.2z"/>
	<path class="st3" d="M44.8,78.2C36.6,64,32.7,61.4,30.7,62c-0.7,0.3-1.3,0.9-1.5,1.6C27.7,68.2,41.1,76.2,44.8,78.2z"/>
	<path class="st3" d="M44.8,78.2c0,0,7.6-21.9,12.8-20.6S44.8,78.2,44.8,78.2z"/>
	<polygon class="st4" points="54.7,101.7 34,101.7 32.1,76.3 56.6,76.3 	"/>
	<path class="st2" d="M101.8,28.3c0,0-8.9-1.7-6.9-10.7s7.8-8.9,7.8-8.9s9.6-14.8,27.6-5.9s4.7,21.8,14.8,30.3s24.9,47.9-7.4,44.2
		L101.8,28.3z"/>
	<path class="st5" d="M126.4,118.2c-2.3,4.1-5.6,7.5-9.6,10.1c-16.2,9.8-40.9-4.3-48.9-9c-5.9-3.4-11.4-7.4-16.4-12l-26.1,19.6
		c-1.5-0.5-3-1-4.4-1.7c0,0,0,0-0.1,0l-0.2-0.1c-5.8-2.7-10.7-6.8-14.4-12.1c7.7-8.6,26.8-28.8,37.5-29.4
		c13.6-0.7,48.6,17.9,48.6,17.9l38.5-1.3C131.1,106.5,129.5,112.8,126.4,118.2z"/>
	<path class="st6" d="M121.1,49.6c0,0-15.4,9.4-14.7,13l0.7,3.6l-14.8,35.4c12.3,4.2,25.2,6,38.1,5.3c2.2-7,15.9-51.5,4-58.1
		c-1.1-0.6-2.4-0.9-3.7-0.8L121.1,49.6z"/>
	<path class="st7" d="M76.7,79.9l-11.6-4.7c-0.8-0.5-1.3-1.4-1.3-2.3V43.1c0-1.6,1.2-2.8,2.3-2.3l11.6,4.7c0.8,0.5,1.3,1.4,1.3,2.3
		v29.7C79,79.2,77.9,80.3,76.7,79.9z"/>
	<path class="st8" d="M132.5,71c-5,6.5-10.9,12.2-17.6,17c-1.5,1.1-2.9,2-4.1,2.8c-8.4,5.2-11.7,5.1-13,5
		c-11.8-1.2-17.3-20.9-17.6-22l-8-0.5c0,0-5-6-4-8c0.8-1.3,2.1-2.3,3.6-2.8c0,0-5.6-2.4-2.8-4.2s10.4,1.5,10.4,1.5s-0.8-4.7,3.5-2.5
		s6.3,14.6,6.3,14.6c3.8,7.9,10.5,7.3,17.1,3.6c10.1-5.6,20.1-18.2,20.1-18.2L132.5,71z"/>
	<path class="st6" d="M134.8,72.7c-5.7,6.2-12.5,11.3-19.9,15.3c-2.4-3.5-6.1-8.7-8.7-12.5c4.7-3,8.8-6.7,12.2-11.1
		c2.9-3.8,4.6-7.1,8.5-8.2c2.4-0.7,5.6-0.6,7.7,1.2C138,60.2,138.6,66.7,134.8,72.7z"/>
	<path class="st8" d="M98.7,50.1c0,0-1-5.1-6.7-1s-8.1,5.9-7.1,7.7s7.4-2.1,7.4-2.1"/>
	<path class="st8" d="M92.3,62.6L92.3,62.6c-0.9,0.4-1.9,0.2-2.6-0.6c-1.4-1.7-1.3-5.4-1.3-5.4l2.1-1C91.1,57.9,91.7,60.3,92.3,62.6
		z"/>
	<path class="st8" d="M93.7,62.9c-0.5,0.2-1,0-1.4-0.4l0,0c-0.3-0.3-0.5-0.6-0.6-1l0,0c-0.7-1.9-1-3.9-1.1-5.9
		c1-1.3,1.9-2.5,2.9-3.8l2.4,4.8C95.9,56.6,96.5,62.1,93.7,62.9z"/>
	<path class="st8" d="M100.9,80.9l-6.7-1.3l2.7-1.5C90.5,77.9,89.7,62,89.7,62c0.6,0.8,1.7,1,2.6,0.6c0.3,0.4,0.9,0.5,1.4,0.4
		c2.9-0.9,2.3-6.3,2.3-6.3L92,55.9c0.1-0.5,0.2-0.9,0.4-1.3l6.2-4.5c0.5-0.1,1.1,0,1.6,0.1h0.1c2.2,0.6,3.7,2.6,3.6,4.8v0.4
		c-0.1,9.2-0.3,13.4,1.7,14.3c0.5,0.2,0.8,0,1,0.3C108.4,71.9,100.9,80.9,100.9,80.9z"/>
	<path class="st9" d="M100,63.3c-0.1,0-0.1,0-0.2,0c-2.7-0.5-4.5-3.1-4-5.8c0.2-1.1,0.8-2.1,1.6-2.8c0.3-0.4,0.8-0.4,1.2-0.1
		c0.4,0.3,0.4,0.8,0.1,1.2c0,0,0,0.1-0.1,0.1c-1.1,1.1-1.4,2.8-0.8,4.2c0.5,0.8,1.4,1.4,2.3,1.6c0.4,0.1,0.7,0.6,0.6,1
		C100.7,63,100.4,63.3,100,63.3L100,63.3z"/>
	<path class="st9" d="M93.3,58.3c-0.4,0-0.7-0.1-1.1-0.2c-0.9-0.4-1.3-1.4-1.1-2.3c0.1-0.5,0.5-0.7,1-0.7c0.4,0.1,0.7,0.5,0.7,0.9
		c0,0.2,0,0.5,0.1,0.5s0.9,0.2,2.6-0.7c0.7-0.4,1.4-0.8,2-1.3c0.4-0.3,0.9-0.2,1.2,0.1c0.3,0.3,0.3,0.8-0.1,1.1L98,55.2l0.6,0.6
		c-0.7,0.6-1.5,1.1-2.3,1.5C95.4,57.9,94.4,58.3,93.3,58.3z"/>
	<path class="st9" d="M92.4,55.4c-0.1,0-0.2,0-0.4-0.1c-0.4-0.2-0.6-0.7-0.4-1.1c1.2-2.3,3.3-4.1,5.8-4.8c0.4-0.1,0.7-0.1,1.1-0.2
		c0.5,0,0.9,0.3,0.9,0.8c0.1,0.5-0.3,0.9-0.7,0.9c0,0,0,0,0,0c-0.3,0-0.6,0.1-0.9,0.1c-2,0.6-3.7,2-4.7,3.9
		C93.1,55.3,92.8,55.4,92.4,55.4z"/>
	<path class="st9" d="M106.2,76.4c-0.5,0-0.8-0.4-0.8-0.8c0-0.3,0.2-0.6,0.4-0.7c0.1-0.1,9.4-5.7,14.5-14.2c0.2-0.4,0.7-0.5,1.1-0.3
		c0,0,0,0,0,0c0.4,0.2,0.5,0.7,0.3,1.1c0,0,0,0,0,0c-5.3,9-14.6,14.6-15,14.8C106.6,76.4,106.4,76.4,106.2,76.4z"/>
	<path class="st8" d="M130.8,47.9c-1.5,1.5-12.1,12-16.3,12c-0.3,0-0.7-0.1-0.9-0.3c-1.3-1.7,7.5-10,7.5-10
		c-0.1-0.7-0.3-1.4-0.5-2.1l-0.6-2.9c-0.8,0.8-1.6,1.5-2.5,2.1c-1.4,1-4.7,3.3-7.4,3.3c-5,0.1-8.4-10-8.4-10l-2.4-0.8
		c0.6-1.8,1.2-3.6,1.8-5.3c-2-5.1,0-15.5,0-15.5l0.9-3.3c5.1,8.3,15,12.4,24.5,10c0.7,3.4,1.3,6.7,2,10l0,0c0.5,2.4,0.9,4.8,1.4,7.2
		C130,44.2,130.4,46,130.8,47.9z"/>
	<path class="st8" d="M130.4,31.5c-1.1,3.3-3.5,5.4-5.4,4.8s-2.6-3.8-1.5-7.1s3.5-5.4,5.4-4.8S131.5,28.2,130.4,31.5z"/>
	<path class="st9" d="M129.7,42.3l-9.1,5.1l-0.6-2.9l8.3-9.4C128.8,37.5,129.2,39.9,129.7,42.3z"/>
	<path class="st1" d="M161.3,119.9l-1.5,3c-17.2,7.9-38,11-58,11.5c-17.4,0.4-34.8-0.7-52-3.1c1.1-4.1,5.4-13.8,23-17.3
		c2.5-0.5,5.1-0.9,7.6-1.1C110.4,110.5,161.3,119.9,161.3,119.9z"/>
</g>
</svg>
